<?xml version="1.0" encoding="UTF-8"?>
<svg width="35px" height="33px" viewBox="0 0 35 33" version="1.1" xmlns="http://www.w3.org/2000/svg" xmlns:xlink="http://www.w3.org/1999/xlink">
    <!-- Generator: Sketch 45.2 (43514) - http://www.bohemiancoding.com/sketch -->
    <title>icon_customer</title>
    <desc>Created with Sketch.</desc>
    <defs></defs>
    <g id="Symbols" stroke="none" stroke-width="1" fill="none" fill-rule="evenodd">
        <g id="footer" transform="translate(-22.000000, -26.000000)" stroke="#333333">
            <g id="icon_customer" transform="translate(19.000000, 27.162714)">
                <g id="Group" transform="translate(9.988791, 0.000000)">
                    <ellipse id="Oval-12" cx="13.4200555" cy="8.64678575" rx="8.54003531" ry="8.64678575"></ellipse>
                    <path d="M26.840111,30.8813777 C26.840111,23.3770395 20.8317475,17.2935715 13.4200555,17.2935715 C6.0083635,17.2935715 0,23.3770395 0,30.8813777" id="Oval-12-Copy"></path>
                </g>
                <path d="M2.92315967,9.92423068 L5.40114053,7.57156983 C5.40114053,7.57156983 6.77406868,7.10472261 7.12395766,7.63151519 C7.47384664,8.15830777 10.5749175,12.0960174 10.5749175,12.0960174 C10.5749175,12.0960174 11.2520618,13.2611892 10.6710437,13.6971555 C10.0900257,14.1331218 8.90482334,15.3343645 8.90482334,15.3343645 C8.90482334,15.3343645 8.48969631,17.1825501 10.2942607,19.1122199 C12.0988251,21.0418897 13.9334789,22.0630369 13.9334789,22.0630369 C13.9334789,22.0630369 15.4179774,22.904867 16.0719556,22.1572367 C16.7259338,21.4096065 17.2129558,20.6744324 17.2129558,20.6744324 C17.2129558,20.6744324 17.9920846,19.9262831 19.0942082,20.6209746 C20.1963319,21.3156661 23.46356,23.5704941 23.46356,23.5704941 C23.46356,23.5704941 24.4104438,24.7979467 23.7447494,25.7077668 C23.0790549,26.6175869 21.4592873,28.1704573 21.4592873,28.1704573 C21.4592873,28.1704573 20.3182871,29.1591665 18.7656215,28.4403412 C17.2129558,27.7215158 13.8717599,25.7917063 11.6828258,24.3591927 C9.49389164,22.9266792 5.88949395,18.4878539 5.43895197,17.6862469 C4.98841,16.8846399 2.70401307,13.2871396 2.60469146,12.103543 C2.50536986,10.9199465 2.92315967,9.92423068 2.92315967,9.92423068 Z" id="Path-2" fill="#FFFFFF" transform="translate(13.285685, 18.041511) rotate(15.000000) translate(-13.285685, -18.041511) "></path>
            </g>
        </g>
    </g>
</svg>