<?xml version="1.0" standalone="no"?><!DOCTYPE svg PUBLIC "-//W3C//DTD SVG 1.1//EN" "http://www.w3.org/Graphics/SVG/1.1/DTD/svg11.dtd"><svg class="icon" width="28px" height="22px" viewBox="0 0 1024 1024" version="1.1" xmlns="http://www.w3.org/2000/svg"><path d="M778.752 913.408c-7.168 0-14.336-2.048-20.48-6.144l-32.768-21.504c-1.024-0.512-2.048-1.024-2.56-2.048l-28.16-18.944c-76.288 12.288-152.576-2.56-215.04-43.008-9.728-6.144-12.288-18.944-6.144-28.16 6.144-9.728 18.944-12.288 28.16-6.144 56.32 35.84 124.928 48.64 194.048 35.84 5.12-1.024 10.752 0 15.36 3.072l35.84 24.064c0.512 0.512 1.536 1.024 2.048 1.536l26.112 16.896 0-61.952c0-7.168 3.584-13.824 9.728-17.408 64-38.912 101.888-102.4 101.888-169.472 0-14.336-1.536-28.672-5.12-42.496-4.608-18.944-12.288-37.376-23.04-54.784-6.144-9.728-3.072-22.528 6.656-28.16 9.728-6.144 22.528-3.072 28.16 6.656 12.8 20.992 22.528 43.52 28.16 66.56 4.096 16.896 6.144 34.816 6.144 52.736 0 77.824-41.472 151.04-111.616 198.144l0 58.368c0 13.824-7.68 26.112-19.456 32.768C791.04 911.872 784.896 913.408 778.752 913.408L778.752 913.408zM287.232 824.832c-6.144 0-12.288-1.536-17.92-4.608-11.776-6.144-19.456-18.944-19.456-32.256l0-87.04c-95.744-61.44-152.576-159.232-152.576-263.68 0-180.224 167.424-326.656 373.248-326.656 205.824 0 373.248 146.432 373.248 326.656 0 180.224-167.424 326.656-373.248 326.656-23.04 0-47.104-2.048-71.168-6.144l-44.032 29.184c-1.024 1.024-2.048 1.536-3.584 2.56l-45.056 29.696C301.568 822.784 294.4 824.832 287.232 824.832L287.232 824.832zM471.04 151.552c-183.296 0-332.288 128-332.288 285.696 0 93.184 53.248 181.248 142.848 234.496 6.144 3.584 10.24 10.24 10.24 17.92l0 90.624 38.4-25.6c0.512-0.512 1.024-1.024 2.048-1.536l51.712-34.304c4.608-3.072 9.728-4.096 15.36-3.072 24.064 4.608 48.64 7.168 71.68 7.168 183.296 0 332.288-128 332.288-285.696C802.816 279.552 653.824 151.552 471.04 151.552L471.04 151.552zM471.04 151.552M382.464 420.864c0 19.456-15.872 35.328-35.328 35.328-19.456 0-35.328-15.872-35.328-35.328 0-19.456 15.872-35.328 35.328-35.328C366.592 385.536 382.464 401.408 382.464 420.864zM512.512 420.864c0 19.456-15.872 35.328-35.328 35.328-19.456 0-35.328-15.872-35.328-35.328 0-19.456 15.872-35.328 35.328-35.328C496.64 385.536 512.512 401.408 512.512 420.864zM642.56 420.864c0 19.456-15.872 35.328-35.328 35.328-19.456 0-35.328-15.872-35.328-35.328 0-19.456 15.872-35.328 35.328-35.328C626.688 385.536 642.56 401.408 642.56 420.864z" /></svg>