<?xml version="1.0" encoding="UTF-8"?>
<svg width="14px" height="15px" viewBox="0 0 14 15" version="1.1" xmlns="http://www.w3.org/2000/svg" xmlns:xlink="http://www.w3.org/1999/xlink">
    <!-- Generator: Sketch 45.2 (43514) - http://www.bohemiancoding.com/sketch -->
    <title>sy_icon_dt</title>
    <desc>Created with Sketch.</desc>
    <defs></defs>
    <g id="mobile" stroke="none" stroke-width="1" fill="none" fill-rule="evenodd">
        <g id="index_mobile_menu" transform="translate(-83.000000, -509.000000)" stroke="#000000">
            <g id="Group-36" transform="translate(19.000000, 509.000000)">
                <path d="M67.60579,10.7211692 C66.3070736,9.72415178 65.4734219,8.1790277 65.4734219,6.44444444 C65.4734219,3.43756081 67.9785363,1 71.0687515,1 C74.1589667,1 76.664081,3.43756081 76.664081,6.44444444 C76.664081,8.19241788 75.8175089,9.74799576 74.5015535,10.7441606 L71,15 L67.60579,10.7211692 Z M71,8.77777778 C72.4201608,8.77777778 73.5714286,7.73310886 73.5714286,6.44444444 C73.5714286,5.15578003 72.4201608,4.11111111 71,4.11111111 C69.5798392,4.11111111 68.4285714,5.15578003 68.4285714,6.44444444 C68.4285714,7.73310886 69.5798392,8.77777778 71,8.77777778 Z" id="sy_icon_dt"></path>
            </g>
        </g>
    </g>
</svg>